<?xml version="1.0" encoding="UTF-8"?>
<svg width="20px" height="20px" viewBox="0 0 20 20" version="1.1" xmlns="http://www.w3.org/2000/svg" xmlns:xlink="http://www.w3.org/1999/xlink">
    <!-- Generator: Sketch 57.1 (83088) - https://sketch.com -->
    <title>Icons / Globe</title>
    <desc>Created with Sketch.</desc>
    <defs>
        <path d="M10,0 C4.47580645,0 0,4.47580645 0,10 C0,15.5241935 4.47580645,20 10,20 C15.5241935,20 20,15.5241935 20,10 C20,4.47580645 15.5241935,0 10,0 Z M8.70967742,2.0483871 L8.70967742,2.50403226 C8.70967742,2.98387097 8.20564516,3.29435484 7.77419355,3.08064516 L6.80645161,2.59677419 C7.40725806,2.33870968 8.04435484,2.15725806 8.70967742,2.0483871 L8.70967742,2.0483871 Z M10,16.9596774 L10,18.0645161 C5.55241935,18.0645161 1.93548387,14.4475806 1.93548387,10 C1.93548387,8.8266129 2.19354839,7.71370968 2.64516129,6.70564516 C3.04435484,7.2983871 3.66129032,8.21370968 4.04032258,8.76612903 C4.25,9.07258065 4.49193548,9.35483871 4.77016129,9.60080645 L4.80241935,9.62903226 C5.18548387,9.97580645 5.61693548,10.2741935 6.0766129,10.5080645 C6.64112903,10.7903226 7.46370968,11.2419355 8.04435484,11.5604839 C8.45564516,11.7862903 8.70967742,12.2177419 8.70967742,12.6895161 L8.70967742,13.9798387 C8.70967742,14.3225806 8.84677419,14.6491935 9.08870968,14.891129 C9.69354839,15.5 10.0685484,16.4516129 10,16.9596774 Z M11.7217742,17.875 L12.4233871,15.983871 C12.5040323,15.7620968 12.5564516,15.5322581 12.6169355,15.3024194 C12.6612903,15.141129 12.7459677,14.9919355 12.8669355,14.8709677 L13.3225806,14.4153226 C13.6774194,14.0645161 13.875,13.5846774 13.875,13.0846774 C13.875,12.7580645 13.7459677,12.4435484 13.516129,12.2137097 L12.9637097,11.6612903 C12.7217742,11.4193548 12.3951613,11.2822581 12.0524194,11.2822581 L9.35483871,11.2822581 C8.97580645,11.0927419 8.48790323,9.99193548 8.06451613,9.99193548 C7.64112903,9.99193548 7.22177419,9.89112903 6.84274194,9.7016129 L6.39516129,9.47983871 C6.23387097,9.39919355 6.12903226,9.22983871 6.12903226,9.0483871 C6.12903226,8.84274194 6.26209677,8.65725806 6.45967742,8.59274194 L7.71774194,8.1733871 C7.93548387,8.10080645 8.1733871,8.14919355 8.34274194,8.2983871 L8.71774194,8.625 C8.77822581,8.67741935 8.85080645,8.70564516 8.92741935,8.70564516 L9.15322581,8.70564516 C9.39516129,8.70564516 9.5483871,8.4516129 9.44354839,8.23790323 L8.81451613,6.97983871 C8.75,6.85483871 8.77822581,6.7016129 8.87903226,6.60483871 L9.27822581,6.21774194 C9.33870968,6.15725806 9.41935484,6.125 9.50403226,6.125 L9.86693548,6.125 C9.9516129,6.125 10.0362903,6.09274194 10.0967742,6.03225806 L10.4193548,5.70967742 C10.5443548,5.58467742 10.5443548,5.37903226 10.4193548,5.25403226 L10.2298387,5.06451613 C10.1048387,4.93951613 10.1048387,4.73387097 10.2298387,4.60887097 L10.6451613,4.19354839 L10.8346774,4.00403226 C11.0846774,3.75403226 11.0846774,3.34274194 10.8346774,3.09274194 L9.69354839,1.9516129 C9.79435484,1.94758065 9.89516129,1.93548387 10,1.93548387 C13.1532258,1.93548387 15.8790323,3.75806452 17.2056452,6.39919355 L16.6814516,6.66129032 C16.5322581,6.73790323 16.4032258,6.85080645 16.3104839,6.98790323 L15.5201613,8.1733871 C15.3024194,8.5 15.3024194,8.9233871 15.5201613,9.24596774 L16.2459677,10.3346774 C16.3790323,10.5362903 16.5846774,10.6774194 16.8145161,10.7379032 L17.9919355,11.0322581 C17.5564516,14.4193548 15.0120968,17.1572581 11.7217742,17.875 L11.7217742,17.875 Z" id="path-1"></path>
    </defs>
    <g id="Symbols" stroke="none" stroke-width="1" fill="none" fill-rule="evenodd">
        <g id="Footer-/-Deskop" transform="translate(-1077.000000, -371.000000)">
            <g id="Region-selector" transform="translate(1077.000000, 371.000000)">
                <g id="Action-/-Region-Selector">
                    <g id="globe-americas-regular">
                        <g id="Icon">
                            <mask id="mask-2" fill="white">
                                <use xlink:href="#path-1"></use>
                            </mask>
                            <use id="Mask" fill="#FFFFFF" fill-rule="nonzero" xlink:href="#path-1"></use>
                            <g id="Color-/-Blue" mask="url(#mask-2)" fill="#0178C9">
                                <rect id="Color" x="0" y="0" width="24" height="24"></rect>
                            </g>
                        </g>
                    </g>
                </g>
            </g>
        </g>
    </g>
</svg>