<?xml version="1.0" encoding="UTF-8"?>
<svg width="17px" height="14px" viewBox="0 0 17 14" version="1.1" xmlns="http://www.w3.org/2000/svg" xmlns:xlink="http://www.w3.org/1999/xlink">
    <!-- Generator: Sketch 57.1 (83088) - https://sketch.com -->
    <title>Icon / Social / Twitter</title>
    <desc>Created with Sketch.</desc>
    <defs>
        <path d="M14.9161252,3.74989013 C14.9266782,3.89708362 14.9266782,4.04430948 14.9266782,4.19150297 C14.9266782,8.68109865 11.4983105,13.8541667 5.23225213,13.8541667 C3.30179634,13.8541667 1.50849735,13.2968833 0,12.3296072 C0.274281101,12.3611301 0.537976711,12.3716486 0.822810831,12.3716486 C2.4156674,12.3716486 3.88198513,11.8354345 5.05291573,10.9206858 C3.55497141,10.8891305 2.29964912,9.91130354 1.86713766,8.56546049 C2.07813312,8.59698346 2.2890961,8.61802035 2.51064457,8.61802035 C2.81655226,8.61802035 3.12249242,8.57594657 3.40729407,8.50238219 C1.8460641,8.18692596 0.675101026,6.82007839 0.675101026,5.16932992 L0.675101026,5.12728851 C1.12868605,5.37963408 1.65617468,5.53734601 2.21522496,5.55835054 C1.29746942,4.94850732 0.696207065,3.90760207 0.696207065,2.7299894 C0.696207065,2.09914166 0.864957969,1.52085377 1.16034511,1.01616263 C2.83762583,3.07696861 5.35882342,4.42277929 8.18589623,4.57000514 C8.13316361,4.31765957 8.10150455,4.05482792 8.10150455,3.79196391 C8.10150455,1.92039284 9.62055491,0.395833333 11.5087986,0.395833333 C12.4898398,0.395833333 13.3759363,0.80589084 13.9983372,1.46829392 C14.7683829,1.32110043 15.506802,1.03719952 16.160862,0.648178904 C15.9076544,1.43677095 15.3696777,2.09917403 14.6629176,2.51971761 C15.3486041,2.44615323 16.0131846,2.2568536 16.625,1.99402195 C16.1609269,2.6669111 15.5807056,3.26620351 14.9161252,3.74989013 Z" id="path-1"></path>
    </defs>
    <g id="Symbols" stroke="none" stroke-width="1" fill="none" fill-rule="evenodd">
        <g id="Icons-/-Social-/-Twitter" transform="translate(-7.000000, -8.000000)">
            <g id="Icons-/-Social-/-Black-/-Twitter" transform="translate(5.526316, 5.526316)">
                <g id="twitter-brands">
                    <polygon id="Path" points="0 0 19 0 19 19 0 19"></polygon>
                    <g id="Icon" transform="translate(1.583333, 2.375000)">
                        <mask id="mask-2" fill="white">
                            <use xlink:href="#path-1"></use>
                        </mask>
                        <use id="Mask" fill="#000000" fill-rule="nonzero" xlink:href="#path-1"></use>
                        <g id="Color-/-Blue" mask="url(#mask-2)" fill="#0178C9">
                            <g transform="translate(-1.583333, -2.375000)" id="Color">
                                <rect x="0" y="0" width="19" height="19"></rect>
                            </g>
                        </g>
                    </g>
                </g>
            </g>
        </g>
    </g>
</svg>